<svg width="233" height="10" viewBox="0 0 233 10" fill="none" xmlns="http://www.w3.org/2000/svg">
<g clip-path="url(#clip0_1_248)">
<rect x="18.5" y="0.265625" width="9" height="9" fill="black"/>
<rect x="46.5" y="0.265625" width="9" height="9" fill="black"/>
<rect x="74.5" y="0.265625" width="9" height="9" fill="black"/>
<rect x="102.5" y="0.265625" width="9" height="9" fill="black"/>
<rect x="130.5" y="0.265625" width="9" height="9" fill="black"/>
<rect x="158.5" y="0.265625" width="9" height="9" fill="black"/>
<rect x="186.5" y="0.265625" width="9" height="9" fill="black"/>
<rect x="214.5" y="0.265625" width="9" height="9" fill="black"/>
<rect x="32.5" y="0.265625" width="9" height="9" fill="black"/>
<rect x="88.5" y="0.265625" width="9" height="9" fill="black"/>
<rect x="144.5" y="0.265625" width="9" height="9" fill="black"/>
<rect x="200.5" y="0.265625" width="9" height="9" fill="black"/>
<rect x="60.5" y="0.265625" width="9" height="9" fill="black"/>
<rect x="172.5" y="0.265625" width="9" height="9" fill="black"/>
<rect x="116.5" y="0.265625" width="9" height="9" fill="black"/>
</g>
<defs>
<clipPath id="clip0_1_248">
<rect width="233" height="10" fill="white"/>
</clipPath>
</defs>
</svg>
