<svg width="90" height="90" viewBox="0 0 90 90" fill="none" xmlns="http://www.w3.org/2000/svg">
<path d="M72.9979 79.386C73.1967 78.6585 73.6628 78.1056 74.2104 77.6303C78.039 74.3134 81.1003 70.3752 83.5442 65.9626C85.8872 61.732 87.4766 57.1997 88.2487 52.4355C88.7822 49.1375 88.9874 45.8085 88.7706 42.4304C88.4539 37.5048 87.4126 32.7993 85.5458 28.2418C83.5461 23.3661 80.7409 19.0292 77.1825 15.1536C74.4781 12.2086 71.4415 9.66579 68.0412 7.58223C63.3192 4.68775 58.2442 2.71671 52.7676 1.70937C49.0323 1.02641 45.2238 0.83548 41.4389 1.14143C35.5651 1.60703 29.9648 3.19298 24.7006 5.99822C19.6144 8.70889 15.2548 12.2135 11.4965 16.5683C9.15589 19.2809 7.2285 22.2467 5.61152 25.4021C3.80489 28.9314 2.59918 32.6955 1.82561 36.6012C1.30666 39.2231 1.06513 41.8771 1.00838 44.5242C0.953714 47.1766 1.16657 49.8277 1.64373 52.4374C2.48084 57.0168 3.94166 61.4148 6.15423 65.5174C7.70881 68.3994 9.57687 71.1009 11.7245 73.5728C14.5544 76.8383 17.7758 79.5999 21.4114 81.9288C26.0606 84.9082 31.057 86.9495 36.4851 87.9748C39.4708 88.5389 42.4565 88.9807 45.5061 88.7891" stroke="black" stroke-width="2" stroke-linecap="round" stroke-linejoin="round"/>
<path d="M55.2915 28.7962C55.6882 27.8985 55.5486 26.9973 55.1688 26.1626C54.3443 24.3497 53.4485 22.6027 52.3316 20.9091C51.3586 19.4333 50.3765 17.9332 49.3372 16.4898C48.6097 15.4795 47.7682 14.5459 46.9253 13.6283C46.0615 12.6869 44.0424 12.6404 43.1001 13.6365C41.2678 15.5732 39.5009 17.6271 38.2079 19.9309C37.2316 21.6706 35.8799 23.2066 35.2494 25.1606C34.8973 26.2509 34.4312 27.2946 34.5103 28.4678C34.553 29.1032 33.9807 29.4752 33.9283 30.1168C33.6276 33.9032 34.8546 37.1008 37.5973 39.6713C39.6091 41.5575 42.0379 42.5683 44.9523 42.544V75.427" stroke="black" stroke-width="2" stroke-linecap="round" stroke-linejoin="round"/>
<path d="M57.2713 43.5332C57.6365 44.1836 57.7563 44.8757 57.7175 45.6231C57.5598 48.5602 57.9241 51.4853 57.9629 54.4205C57.9852 56.118 59.204 57.2126 60.901 57.3858C63.7169 57.6734 66.5445 57.6399 69.3681 57.5943C70.245 57.5732 71.1136 57.7675 71.8979 58.1603" stroke="black" stroke-width="2" stroke-linecap="round" stroke-linejoin="round"/>
<path d="M32.6362 43.5332C32.2705 44.1836 32.1512 44.8757 32.1895 45.6231C32.3471 48.5602 32.0251 51.4877 31.947 54.42C31.9029 56.1126 30.7064 57.2058 29.005 57.3872C26.2623 57.6782 23.508 57.6297 20.7571 57.5972C19.8103 57.5806 18.8716 57.7728 18.0076 58.1603" stroke="black" stroke-width="2" stroke-linecap="round" stroke-linejoin="round"/>
<path d="M54.8516 60.6899C59.4508 65.3261 67.2564 64.7077 71.2736 59.6414C72.2092 58.4614 73.2893 57.1994 73.7859 55.6367C74.2283 54.2443 75.0649 52.945 75.0523 51.4521C75.044 50.4986 75.6144 49.789 75.7492 48.9224C76.0494 46.9887 76.3506 45.0632 76.466 43.097C76.5296 42.0082 76.5567 41.0852 75.9937 40.1089C75.5135 39.2762 74.8088 39.0288 73.9867 38.9211C72.5482 38.733 71.1282 39.0773 69.7003 39.1636C68.5424 39.2318 67.3985 39.4521 66.298 39.8189C64.1257 40.5551 61.7594 40.5488 59.6812 41.6454C58.848 42.0853 57.9425 42.4005 57.4046 43.2183C57.3197 43.3531 57.194 43.4574 57.0457 43.516C53.7118 44.583 52.5731 47.4931 51.8465 50.3701C50.8838 54.1817 51.8596 57.7188 54.7415 60.5789" stroke="black" stroke-width="2" stroke-linecap="round" stroke-linejoin="round"/>
<path d="M35.1655 60.5798C39.2487 56.6867 39.415 50.0291 35.7305 45.6102C34.9312 44.6504 34.2173 43.7051 32.8588 43.5111C32.3825 43.4442 32.3253 42.7691 31.8709 42.5334C29.7543 41.4397 27.663 40.2878 25.157 40.4479C25.0389 40.4529 24.9232 40.414 24.8321 40.3387C23.9906 39.5496 22.847 39.5142 21.8522 39.409C20.1004 39.2237 18.3602 38.827 16.5788 38.907C15.0205 38.9783 13.9176 39.698 13.4006 41.1172C13.2842 41.4313 13.2469 41.7693 13.292 42.1012C13.6557 44.3288 13.6063 46.6117 14.1577 48.8122C14.1747 48.8815 14.1393 48.9659 14.1626 49.0304C15.0414 51.4554 15.1403 54.1181 16.4653 56.4025C16.7714 56.9306 16.9877 57.5039 17.5595 57.8458C17.736 57.9516 17.9378 58.0776 18.0275 58.374C18.7443 60.7389 20.712 61.8126 22.7412 62.772C26.8788 64.728 31.9664 63.8758 35.0554 60.6894" stroke="black" stroke-width="2" stroke-linecap="round" stroke-linejoin="round"/>
<path d="M45.0633 36.8241C46.0818 36.7179 46.8767 36.2465 47.6057 35.5146C49.4744 33.6445 51.3999 31.8286 53.3156 30.007C53.8579 29.4909 54.4175 28.9797 55.2275 28.7824C56.2014 29.8416 56.2154 31.0294 56.0035 32.4305C55.7552 34.0766 55.3672 35.6626 54.4937 37.0244C52.3083 40.4311 49.2625 42.5083 44.9532 42.5428V13.0693" stroke="black" stroke-width="2" stroke-linecap="round" stroke-linejoin="round"/>
<path d="M64.9697 40.5635C65.4023 42.0122 65.1152 43.4963 65.1846 44.9629C65.2491 46.3209 65.3257 47.6212 66.1463 48.8341C66.756 49.7353 67.5286 50.0859 68.4893 50.1174C70.1005 50.1698 71.7151 50.146 73.3277 50.1237C73.8956 50.116 74.4432 50.1722 74.9767 50.3517" stroke="black" stroke-width="2" stroke-linecap="round" stroke-linejoin="round"/>
<path d="M24.9402 40.5635C24.69 41.1658 24.7264 41.8002 24.7162 42.4331C24.6919 43.9366 24.8093 45.4658 24.5707 46.9354C24.2656 48.7997 23.1302 50.1654 21.312 50.1363C19.7362 50.1116 18.1595 50.1456 16.5832 50.1232C16.0153 50.1155 15.4677 50.1718 14.9342 50.3512" stroke="black" stroke-width="2" stroke-linecap="round" stroke-linejoin="round"/>
<path d="M34.7256 28.686C35.3658 28.8184 35.8149 29.2312 36.2712 29.6701C38.4576 31.774 40.6697 33.8499 42.8605 35.9485C43.424 36.4888 44.0497 36.8021 44.8436 36.7148" stroke="black" stroke-width="2" stroke-linecap="round" stroke-linejoin="round"/>
<path d="M58.3708 56.9502C54.7047 60.6163 50.9876 64.2329 47.3991 67.9733C46.0207 69.4093 43.8863 69.4093 42.5079 67.9733C38.9189 64.2329 35.2023 60.6163 31.5362 56.9502" stroke="black" stroke-width="2" stroke-linecap="round" stroke-linejoin="round"/>
<path d="M71.2932 71.3579C71.3117 73.264 71.3417 75.1705 71.3417 77.0765C71.3417 77.71 71.4601 78.2745 71.7617 78.8502C71.9625 79.2338 72.2079 79.2649 72.545 79.4157C74.9394 80.488 77.4725 79.8386 79.9266 80.101" stroke="black" stroke-width="2" stroke-linecap="round" stroke-linejoin="round"/>
<path d="M75.1974 40.2339L66.7292 48.5924" stroke="black" stroke-width="2" stroke-linecap="round" stroke-linejoin="round"/>
<path d="M14.8197 40.2339L23.1777 48.5924" stroke="black" stroke-width="2" stroke-linecap="round" stroke-linejoin="round"/>
<path d="M52.1002 20.9878C50.3746 22.0194 49.2242 23.6878 47.7134 24.9614C46.9151 25.6346 46.1667 26.3165 45.0614 26.3766" stroke="black" stroke-width="2" stroke-linecap="round" stroke-linejoin="round"/>
<path d="M38.0251 21.0977C39.6954 22.3465 41.1131 23.8748 42.6326 25.2919C43.2839 25.9006 43.9653 26.3056 44.8461 26.3764" stroke="black" stroke-width="2" stroke-linecap="round" stroke-linejoin="round"/>
<path d="M23.9479 49.4722L30.6564 56.0683" stroke="black" stroke-width="2" stroke-linecap="round" stroke-linejoin="round"/>
<path d="M65.9591 49.4722L59.2506 56.0683" stroke="black" stroke-width="2" stroke-linecap="round" stroke-linejoin="round"/>
</svg>
