<svg width="87" height="87" viewBox="0 0 87 87" fill="none" xmlns="http://www.w3.org/2000/svg">
<path d="M8.88403 21.9225C3.26941 19.5678 1.1201 21.0333 1.1201 27.2161C1.1201 32.0393 1.39787 36.8826 1.04913 41.6804C0.622367 47.5441 3.0377 52.2239 5.5099 57.3098C8.66736 63.8066 13.388 68.7026 18.4734 73.3838C21.4344 76.1098 22.8195 79.0459 22.319 82.9817C22.2165 83.7877 22.4228 84.6337 22.4995 85.6254H39.2343C39.2343 79.4539 39.2958 73.4524 39.1713 67.4519C39.1516 66.5011 38.4752 65.4032 37.7942 64.6531C32.1984 58.49 26.4799 52.4378 20.9273 46.2361C19.8745 45.0611 18.6276 44.9051 17.2176 44.6381C16.1479 45.6143 15.2436 46.9355 14.5306 48.3953" stroke="black" stroke-width="2" stroke-linecap="round" stroke-linejoin="round"/>
<path d="M72.4102 48.3914L70.1871 44.9604C66.9022 43.9622 65.4095 46.5584 64.0456 48.1311C59.7813 53.0435 55.2848 57.7327 50.8551 62.483C48.6653 64.833 47.449 67.2718 47.6356 70.6295C47.9096 75.5579 47.7061 80.5126 47.7061 85.6225H64.8817C62.332 77.3096 68.3597 73.3085 73.1669 68.9149C79.0931 63.4982 81.6268 56.0966 85.4931 49.464C86.0571 48.4953 85.7882 47.5591 85.7953 46.6256C85.8423 40.1561 85.8206 33.6856 85.8206 27.2147C85.8206 21.0318 83.6713 19.5663 78.0567 21.921" stroke="black" stroke-width="2" stroke-linecap="round" stroke-linejoin="round"/>
<path d="M43.4695 4.98295C42.5295 4.39497 41.5547 3.85494 40.6495 3.21104C34.9253 -0.854462 29.5382 1.24315 26.2158 5.01914C22.6588 9.06114 22.4811 15.3544 26.5762 19.4012C31.9639 24.7277 37.6974 29.704 43.4492 34.9854C47.1087 31.6954 50.5932 28.5854 54.0492 25.4444C55.9578 23.7092 57.8303 21.933 59.6981 20.1532C64.0009 16.0529 64.9344 9.62514 60.3495 4.68074C56.2779 0.2914 49.1071 0.53768 43.4765 4.96885" stroke="black" stroke-width="2" stroke-linecap="round" stroke-linejoin="round"/>
<path d="M17.0009 44.5091C16.2198 39.23 16.6423 33.9157 16.7504 28.6301C16.7941 26.5001 16.4994 24.4025 16.6014 22.2734C16.7401 19.3876 15.4833 18.041 13.1192 18.041C10.9464 18.041 8.99026 20.1584 9.2732 22.6245C9.97491 28.741 9.34464 34.8661 9.60972 40.9794C9.65672 42.0547 9.28072 43.1301 10.2625 44.1871C15.5153 49.8323 19.1559 56.7883 24.7653 62.1548" stroke="black" stroke-width="2" stroke-linecap="round" stroke-linejoin="round"/>
<path d="M69.9375 44.5091C70.7186 39.23 70.2966 33.9157 70.188 28.6301C70.1443 26.5001 70.4395 24.4025 70.337 22.2734C70.196 19.3876 71.4556 18.041 73.8197 18.041C75.992 18.041 77.9486 20.1584 77.6657 22.6245C76.964 28.741 77.5943 34.8661 77.3292 40.9794C77.2822 42.0547 77.6582 43.1301 76.6764 44.1871C71.4232 49.8323 67.783 56.7883 62.1736 62.1548" stroke="black" stroke-width="2" stroke-linecap="round" stroke-linejoin="round"/>
<path d="M30.2352 54.7434C31.39 50.5496 30.755 46.2623 30.6619 42.0413C30.6018 39.3153 28.467 38.7621 24.4109 39.9216" stroke="black" stroke-width="2" stroke-linecap="round" stroke-linejoin="round"/>
<path d="M62.5265 39.9214C57.7636 38.1936 55.5612 39.9068 56.1534 44.8643C56.5444 48.1393 55.5687 51.5007 56.7037 54.7432" stroke="black" stroke-width="2" stroke-linecap="round" stroke-linejoin="round"/>
<path d="M23.0004 47.6853C24.1675 44.3379 23.674 40.8759 23.7054 37.451C23.721 35.6862 23.5372 33.9016 23.7407 32.1612C24.3207 27.2022 22.1192 25.4872 17.3558 27.2163" stroke="black" stroke-width="2" stroke-linecap="round" stroke-linejoin="round"/>
<path d="M69.5851 27.2163C64.8216 25.4891 62.7503 27.1928 63.17 32.1626C63.4854 35.9 63.2884 39.6873 63.2048 43.4496C63.1714 44.9381 63.4506 46.3166 63.9384 47.6852" stroke="black" stroke-width="2" stroke-linecap="round" stroke-linejoin="round"/>
</svg>
