<svg width="92" height="92" viewBox="0 0 92 92" fill="none" xmlns="http://www.w3.org/2000/svg">
<path d="M49.8728 75.3534C49.5818 74.1147 49.657 72.9468 49.9543 71.6625C50.6061 68.8432 50.7109 65.9822 50.3602 63.0416C49.8321 58.6117 48.2083 54.7297 45.6363 51.1645C45.0989 50.42 44.8118 49.176 44.2371 48.851C41.5415 47.3179 39.5287 44.7935 36.578 43.6737C36.4388 43.6208 36.2535 43.6203 36.1604 43.5282C34.2689 41.6119 31.663 41.9679 29.3578 41.4475C25.9477 40.6773 22.5523 41.3471 19.183 41.981C18.9919 42.0169 18.7785 42.1585 18.6208 42.1086C16.1643 41.3272 14.6274 42.9505 12.959 44.2426C8.99311 47.3131 5.5142 50.8163 3.35595 55.4223C1.99795 58.3221 1.21225 61.3529 1.04105 64.6072C0.593392 73.0976 3.81864 79.9541 10.1624 85.3579C13.296 88.0254 17.0092 89.6187 21.1482 90.4189C24.6591 91.0979 28.1002 91.0383 31.4719 90.2788C35.0682 89.4688 38.3589 87.7747 41.2485 85.3987C44.3273 82.868 46.8566 79.8416 49.14 76.6081C49.6453 75.8922 50.1279 75.3272 51.0048 75.2166C51.8817 75.106 52.419 74.5129 52.985 73.9396C57.0382 69.837 61.0724 65.7154 65.1522 61.64C70.6489 56.1508 76.1633 50.6808 81.6956 45.23C85.3956 41.5688 88.4512 37.5326 89.7786 32.3644C90.3179 30.2605 90.543 28.1449 90.6031 25.9944C90.6269 25.1651 90.3068 24.472 89.7548 23.873" stroke="black" stroke-width="2" stroke-linecap="round" stroke-linejoin="round"/>
<path d="M71.2288 40.987C72.3084 40.5286 72.8492 39.4956 73.6286 38.7196C78.1634 34.2033 82.6926 29.6811 87.2164 25.1532C87.6417 24.7298 88.1088 24.3078 88.6335 24.0323C89.8863 23.3747 90.4935 22.3649 90.1729 21.0471C87.8139 11.3501 82.0191 4.68519 72.3429 2.01575C63.5159 -0.418466 55.3844 1.51038 48.7796 7.93275C38.3589 18.0605 28.1972 28.456 17.8914 38.7075C17.0184 39.5775 16.6848 40.5713 16.4951 41.6955" stroke="black" stroke-width="2" stroke-linecap="round" stroke-linejoin="round"/>
<path d="M35.4469 65.7367C35.3145 67.7524 34.9134 69.6802 33.7533 71.3962C30.1017 76.7967 22.6022 77.0508 18.6116 72.3885C15.8728 69.1875 15.3887 65.5393 16.9466 62.2132C18.7367 58.3904 21.8242 56.3932 26.1131 56.4019C26.4899 56.4019 26.8672 56.4019 27.2446 56.4019" stroke="black" stroke-width="2" stroke-linecap="round" stroke-linejoin="round"/>
<path d="M76.1807 16.8013C75.8853 17.5719 75.1501 17.943 74.6146 18.4881C69.9169 23.2679 65.2042 28.0316 60.4764 32.7791C55.1191 38.1464 49.7459 43.4984 44.3569 48.835" stroke="black" stroke-width="2" stroke-linecap="round" stroke-linejoin="round"/>
<path d="M53.55 20.9033C53.712 21.8399 53.178 22.4253 52.5679 23.0325C46.9445 28.6294 41.3303 34.2353 35.7253 39.8503C35.0919 40.4808 34.4803 41.1113 34.1733 41.9761" stroke="black" stroke-width="2" stroke-linecap="round" stroke-linejoin="round"/>
<path d="M25.2639 49.1889C23.5135 49.5386 21.7418 49.6439 20.0172 50.2836C14.267 52.4176 10.597 56.6032 9.38209 62.363C7.46633 71.4476 12.2945 79.9409 21.7496 82.3417C28.9388 84.1672 35.7249 81.4687 39.9623 74.9212C41.3465 72.7828 42.1288 70.4296 42.4009 67.8591C43.013 62.0764 41.04 57.2991 36.8384 53.4545C34.0827 50.9325 30.7759 49.4601 26.9614 49.3243C26.4415 49.3058 25.924 49.2341 25.4055 49.1865" stroke="black" stroke-width="2" stroke-linecap="round" stroke-linejoin="round"/>
</svg>
